<svg xmlns:dc="http://purl.org/dc/elements/1.1/" xmlns:cc="http://creativecommons.org/ns#" xmlns:rdf="http://www.w3.org/1999/02/22-rdf-syntax-ns#" xmlns:svg="http://www.w3.org/2000/svg" xmlns="http://www.w3.org/2000/svg" xmlns:sodipodi="http://sodipodi.sourceforge.net/DTD/sodipodi-0.dtd" xmlns:inkscape="http://www.inkscape.org/namespaces/inkscape" version="1.1" x="0px" y="0px" viewBox="0 0 100 125"><g transform="translate(0,-952.36218)"><path style="text-indent:0;text-transform:none;direction:ltr;block-progression:tb;baseline-shift:baseline;color:#000000;enable-background:accumulate;" d="m 50.000108,968.68861 c -9.7999,0 -17.9063,7.8104 -17.9063,17.4687 0,5.7225 2.8683,10.7816 7.2188,13.96869 -13.8205,4.5131 -23.8438,17.5047 -23.8438,32.8126 0,0.071 -5e-4,0.1477 0,0.2187 a 2.9002901,2.9002901 0 0 0 2.625,2.875 2.9002901,2.9002901 0 0 0 0.2813,0 l 31.625,-0.1875 31.625,0 a 2.9002901,2.9002901 0 0 0 2.9063,-2.9062 c 0,-15.305 -10.0273,-28.2971 -23.8438,-32.8126 4.3558,-3.18709 7.1875,-8.24619 7.1875,-13.96869 0,-9.6583 -8.0751,-17.4687 -17.875,-17.4687 z m 0,5.8124 c 6.7524,0 12.0625,5.2221 12.0625,11.6563 0,6.4343 -5.3101,11.6875 -12.0625,11.6875 -6.7524,0 -12.0937,-5.2532 -12.0937,-11.6875 0,-6.4342 5.3413,-11.6563 12.0937,-11.6563 z m 0,29.71879 c 14.923,0 27.1425,11.2804 28.5937,25.8125 l -28.5937,0 a 2.9002901,2.9002901 0 0 0 -0.031,0 l -28.5937,0.1875 c 1.367,-14.6198 13.6398,-26 28.625,-26 z" fill="#000000" fill-opacity="1" stroke="none" marker="none" visibility="visible" display="inline" overflow="visible"/></g><text x="0" y="115" fill="#000000" font-size="5px" font-weight="bold" font-family="'Helvetica Neue', Helvetica, Arial-Unicode, Arial, Sans-serif">Created by Royal Icon</text><text x="0" y="120" fill="#000000" font-size="5px" font-weight="bold" font-family="'Helvetica Neue', Helvetica, Arial-Unicode, Arial, Sans-serif">from the Noun Project</text></svg>